<svg id="Capa_1" enable-background="new 0 0 512 512" height="512" viewBox="0 0 512 512" width="512" xmlns="http://www.w3.org/2000/svg"><g><path d="m407 211h-46c-8.284 0-15-6.716-15-15s6.716-15 15-15h46c8.284 0 15 6.716 15 15s-6.716 15-15 15z" fill="#47568c"/><path d="m497 331h-136c-8.284 0-15-6.716-15-15s6.716-15 15-15h136c8.284 0 15 6.716 15 15s-6.716 15-15 15z" fill="#47568c"/><path d="m467 271h-106c-8.284 0-15-6.716-15-15s6.716-15 15-15h91v-45c0-8.284 6.716-15 15-15h30c8.284 0 15 6.716 15 15s-6.716 15-15 15h-15v45c0 8.284-6.716 15-15 15z" fill="#47568c"/><g fill="#61729b"><path d="m151 331h-46c-8.284 0-15-6.716-15-15s6.716-15 15-15h46c8.284 0 15 6.716 15 15s-6.716 15-15 15z"/><path d="m151 211h-136c-8.284 0-15-6.716-15-15s6.716-15 15-15h136c8.284 0 15 6.716 15 15s-6.716 15-15 15z"/><path d="m45 331h-30c-8.284 0-15-6.716-15-15s6.716-15 15-15h15v-45c0-8.284 6.716-15 15-15h106c8.284 0 15 6.716 15 15s-6.716 15-15 15h-91v45c0 8.284-6.716 15-15 15z"/><path d="m256 166c-8.284 0-15-6.716-15-15v-91h-45c-8.284 0-15-6.716-15-15v-30c0-8.284 6.716-15 15-15s15 6.716 15 15v15h45c8.284 0 15 6.716 15 15v106c0 8.284-6.716 15-15 15z"/></g><path d="m256 30v136c8.284 0 15-6.716 15-15v-106c0-8.284-6.716-15-15-15z" fill="#47568c"/><path d="m196 166c-8.284 0-15-6.716-15-15v-46c0-8.284 6.716-15 15-15s15 6.716 15 15v46c0 8.284-6.716 15-15 15z" fill="#61729b"/><path d="m316 166c-8.284 0-15-6.716-15-15v-136c0-8.284 6.716-15 15-15s15 6.716 15 15v136c0 8.284-6.716 15-15 15z" fill="#47568c"/><path d="m316 422c-8.284 0-15-6.716-15-15v-46c0-8.284 6.716-15 15-15s15 6.716 15 15v46c0 8.284-6.716 15-15 15z" fill="#47568c"/><path d="m196 512c-8.284 0-15-6.716-15-15v-136c0-8.284 6.716-15 15-15s15 6.716 15 15v136c0 8.284-6.716 15-15 15z" fill="#61729b"/><path d="m316 512c-8.284 0-15-6.716-15-15v-15h-45c-8.284 0-15-6.716-15-15v-106c0-8.284 6.716-15 15-15s15 6.716 15 15v91h45c8.284 0 15 6.716 15 15v30c0 8.284-6.716 15-15 15z" fill="#61729b"/><path d="m316 452h-45v-91c0-8.284-6.716-15-15-15v136h45v15c0 8.284 6.716 15 15 15s15-6.716 15-15v-30c0-8.284-6.716-15-15-15z" fill="#47568c"/><path d="m361 136h-210c-8.284 0-15 6.716-15 15v210c0 8.284 6.716 15 15 15h210c8.284 0 15-6.716 15-15v-210c0-8.284-6.716-15-15-15z" fill="#edf5ff"/><path d="m361 136h-105v240h105c8.284 0 15-6.716 15-15v-210c0-8.284-6.716-15-15-15z" fill="#d5e8fe"/><path d="m301 196h-90c-8.284 0-15 6.716-15 15v90c0 8.284 6.716 15 15 15h90c8.284 0 15-6.716 15-15v-90c0-8.284-6.716-15-15-15z" fill="#a5e887"/><path d="m301 196h-45v120h45c8.284 0 15-6.716 15-15v-90c0-8.284-6.716-15-15-15z" fill="#00cc76"/></g></svg>