<svg id="Capa_1" enable-background="new 0 0 512 512" height="512" viewBox="0 0 512 512" width="512" xmlns="http://www.w3.org/2000/svg"><g><g><path d="m27.084 428.82c-2.73 0-5.357-1.508-6.659-4.116-1.835-3.675-.343-8.141 3.331-9.975l28.759-14.358c3.674-1.836 8.14-.343 9.975 3.332s.343 8.141-3.331 9.975l-28.759 14.357c-1.067.532-2.2.785-3.316.785z" fill="#2b4d66"/></g><g><path d="m484.916 428.82c-1.116 0-2.249-.252-3.316-.785l-28.759-14.358c-3.675-1.834-5.166-6.3-3.332-9.975 1.835-3.675 6.302-5.165 9.975-3.332l28.759 14.358c3.675 1.834 5.166 6.3 3.332 9.975-1.302 2.608-3.93 4.117-6.659 4.117z" fill="#2b4d66"/></g><g><path d="m287.239 110.542h-62.477v-52.477c0-5.523 4.477-10 10-10h42.477c5.523 0 10 4.477 10 10z" fill="#365e7d"/></g><g><path d="m277.239 48.065h-18.984c5.476 0 9.916 4.439 9.916 9.916v52.561h19.069v-52.477c-.001-5.523-4.479-10-10.001-10z" fill="#2b4d66"/></g><g><path d="m348.904 110.176-.708-.325c-25.487-11.685-52.639-18.282-80.007-19.791 0 0-4.874.728-7.313.674-2.937-.065-5.874-1.027-8.811-.975-30.149.536-60.213 7.233-88.26 20.092l-.708.325c-33.356 15.293-54.742 48.622-54.742 85.317h295.291c-.001-36.695-21.386-70.025-54.742-85.317z" fill="#407093"/></g><g><path d="m348.904 110.176-.708-.325c-30.487-13.977-63.359-20.657-96.131-20.074 19.379 3.493 38.426 9.404 56.674 17.77l.758.348c34.572 15.85 57.129 49.803 58.524 87.599h35.625c-.001-36.696-21.386-70.026-54.742-85.318z" fill="#365e7d"/></g><g><path d="m409.575 460.852c14.436 7.207 31.982 1.348 39.189-13.088l21.735-43.533c7.207-14.436 1.348-31.981-13.089-39.189l-46.508-23.22-24.615 49.302c-12.825 25.685-2.398 56.904 23.288 69.728z" fill="#407093"/></g><g><path d="m457.41 365.041-1.24-.619c1.256 6.169.543 12.786-2.487 18.855l-21.735 43.533c-7.207 14.436-24.753 20.296-39.189 13.089-2.686-1.341-5.195-2.894-7.538-4.61 4.714 10.721 13.055 19.922 24.353 25.562 14.436 7.207 31.981 1.347 39.189-13.089l21.735-43.533c7.208-14.435 1.348-31.981-13.088-39.188z" fill="#365e7d"/></g><g><path d="m102.425 460.852c-14.436 7.207-31.982 1.348-39.189-13.088l-21.734-43.534c-7.207-14.436-1.347-31.981 13.089-39.189l46.508-23.22 24.615 49.302c12.824 25.686 2.397 56.905-23.289 69.729z" fill="#407093"/></g><g><path d="m125.714 391.123-24.615-49.302-19.886 9.929 18.482 37.019c12.824 25.686 2.398 56.904-23.288 69.728-.791.395-1.593.744-2.4 1.061 8.321 5.137 19.027 5.983 28.42 1.294 25.684-12.824 36.111-44.043 23.287-69.729z" fill="#365e7d"/></g><g><path d="m29.014 447.064c-3.328 0-6.357-2.25-7.207-5.624l-19.317-76.772c-5.564-22.115-1.705-45.813 10.589-65.019l13.062-20.406c6.5-10.154 9.935-21.894 9.935-33.95v-36.489c0-4.107 3.33-7.437 7.437-7.437s7.437 3.33 7.437 7.437v36.489c0 14.904-4.247 29.417-12.282 41.969l-13.062 20.406c-10.092 15.765-13.26 35.218-8.692 53.371l19.317 76.773c1.002 3.983-1.414 8.024-5.397 9.027-.609.152-1.219.225-1.82.225z" fill="#2b4d66"/></g><g><path d="m482.986 447.064c-.601 0-1.211-.074-1.82-.227-3.983-1.002-6.4-5.043-5.397-9.027l19.317-76.773c4.568-18.153 1.4-37.606-8.692-53.371l-13.062-20.406c-8.035-12.552-12.282-27.064-12.282-41.969v-36.489c0-4.107 3.33-7.437 7.437-7.437s7.437 3.33 7.437 7.437v36.489c0 12.057 3.436 23.796 9.935 33.95l13.062 20.406c12.294 19.206 16.153 42.904 10.589 65.019l-19.317 76.773c-.85 3.375-3.88 5.625-7.207 5.625z" fill="#2b4d66"/></g><g><path d="m353.732 385.071h-195.464c-43.655 0-79.044-35.389-79.044-79.044v-47.311c0-43.655 35.389-79.044 79.044-79.044h195.464c43.655 0 79.044 35.389 79.044 79.044v47.311c.001 43.655-35.389 79.044-79.044 79.044z" fill="#407093"/></g><path d="m374.108 182.337c1.979 6.919 3.061 14.217 3.061 21.772v96.874c0 16.282-13.199 29.481-29.481 29.481h-245.028c-7.047 0-13.873-.935-20.375-2.665 9.457 33.063 39.883 57.272 75.983 57.272h195.464c43.655 0 79.044-35.389 79.044-79.044v-47.31c.001-36.609-24.891-67.392-58.668-76.38z" fill="#365e7d"/><g><g><path d="m354.721 414.202h-197.441c-59.103 0-107.187-48.084-107.187-107.187v-49.287c0-59.103 48.084-107.187 107.187-107.187h197.441c59.103 0 107.187 48.084 107.187 107.187v49.287c0 59.103-48.084 107.187-107.187 107.187zm-197.441-205.399c-26.977 0-48.925 21.948-48.925 48.925v49.287c0 26.977 21.948 48.925 48.925 48.925h197.441c26.977 0 48.924-21.948 48.924-48.925v-49.287c0-26.977-21.948-48.925-48.924-48.925z" fill="#b1e4f9"/></g></g><g><path d="m414.199 168.602c11.312 16.989 17.909 37.386 17.909 59.326v72.805c0 46.209-37.46 83.669-83.669 83.669h-220.959c-21.94 0-42.337-6.597-59.326-17.909 19.246 28.745 52.011 47.709 89.126 47.709h197.441c59.103 0 107.187-48.084 107.187-107.187v-49.287c0-37.115-18.965-69.881-47.709-89.126z" fill="#75cef9"/></g><g><path d="m203.625 311.855h-38.967c-5.523 0-10-4.477-10-10v-38.967c0-5.523 4.477-10 10-10h38.967c5.523 0 10 4.477 10 10v38.967c0 5.523-4.477 10-10 10z" fill="#365e7d"/></g><g><path d="m347.342 311.855h-38.967c-5.523 0-10-4.477-10-10v-38.967c0-5.523 4.477-10 10-10h38.967c5.523 0 10 4.477 10 10v38.967c0 5.523-4.477 10-10 10z" fill="#365e7d"/></g><g><path d="m203.625 252.888h-9.916v29.136c0 5.476-4.439 9.916-9.916 9.916h-29.136v9.916c0 5.523 4.477 10 10 10h38.967c5.523 0 10-4.477 10-10v-38.967c.001-5.524-4.476-10.001-9.999-10.001z" fill="#2b4d66"/></g><g><path d="m347.342 252.888h-9.916v29.136c0 5.476-4.439 9.916-9.916 9.916h-29.136v9.916c0 5.523 4.477 10 10 10h38.967c5.523 0 10-4.477 10-10v-38.967c.001-5.524-4.476-10.001-9.999-10.001z" fill="#2b4d66"/></g><g><circle cx="184.142" cy="282.372" fill="#75cef9" r="10.624"/></g><g><circle cx="327.858" cy="282.372" fill="#75cef9" r="10.624"/></g></g></svg>